<svg xmlns="http://www.w3.org/2000/svg" viewBox="0 0 1200 760" font-family="-apple-system, Segoe UI, sans-serif">
  <rect width="1200" height="760" fill="#f7f9fb"/>
  <rect x="0" y="0" width="1200" height="64" fill="#0D6E6E"/>
  <text x="32" y="40" fill="white" font-size="22" font-weight="700">💉 Admin · County Health Officer</text>
  <text x="930" y="40" fill="#9CD3D3" font-size="14">System Admin · Nairobi HQ</text>

  <text x="40" y="110" fill="#0D6E6E" font-size="26" font-weight="700">System Overview</text>
  <text x="40" y="135" fill="#475569" font-size="13">Live statistics across all 47 counties · Last refresh: 08:00 EAT</text>

  <!-- KPI cards -->
  <g>
    <rect x="40" y="160" width="265" height="120" rx="12" fill="white" stroke="#e2e8f0"/>
    <text x="60" y="195" fill="#64748b" font-size="13" font-weight="600">CHILDREN REGISTERED</text>
    <text x="60" y="245" fill="#0D6E6E" font-size="48" font-weight="700">4</text>
    <text x="60" y="270" fill="#10B981" font-size="12">↑ across 2 counties</text>

    <rect x="320" y="160" width="265" height="120" rx="12" fill="white" stroke="#e2e8f0"/>
    <text x="340" y="195" fill="#64748b" font-size="13" font-weight="600">VACCINATIONS COMPLETED</text>
    <text x="340" y="245" fill="#10B981" font-size="48" font-weight="700">57</text>
    <text x="340" y="270" fill="#475569" font-size="12">of 76 scheduled (75%)</text>

    <rect x="600" y="160" width="265" height="120" rx="12" fill="white" stroke="#e2e8f0"/>
    <text x="620" y="195" fill="#64748b" font-size="13" font-weight="600">MISSED DOSES</text>
    <text x="620" y="245" fill="#DC2626" font-size="48" font-weight="700">11</text>
    <text x="620" y="270" fill="#DC2626" font-size="12">10 in Kisumu · 1 in Nairobi</text>

    <rect x="880" y="160" width="280" height="120" rx="12" fill="#FEF2F2" stroke="#DC2626"/>
    <text x="900" y="195" fill="#7F1D1D" font-size="13" font-weight="700">🚨 ACTIVE CLIMATE ALERTS</text>
    <text x="900" y="245" fill="#DC2626" font-size="48" font-weight="700">5</text>
    <text x="900" y="270" fill="#7F1D1D" font-size="12">3 HIGH · 2 MEDIUM</text>
  </g>

  <!-- Recent alerts table -->
  <rect x="40" y="305" width="700" height="430" rx="12" fill="white" stroke="#e2e8f0"/>
  <text x="60" y="340" fill="#0D6E6E" font-size="18" font-weight="700">Active Outbreak Alerts</text>
  <text x="60" y="360" fill="#64748b" font-size="12">From ClimateShield AI · 14-day forecast window</text>

  <rect x="60" y="380" width="660" height="36" rx="6" fill="#E2E8F0"/>
  <text x="80"  y="402" fill="#0f172a" font-size="11" font-weight="700">COUNTY</text>
  <text x="200" y="402" fill="#0f172a" font-size="11" font-weight="700">DISEASE</text>
  <text x="330" y="402" fill="#0f172a" font-size="11" font-weight="700">RISK</text>
  <text x="430" y="402" fill="#0f172a" font-size="11" font-weight="700">KIDS AT RISK</text>
  <text x="580" y="402" fill="#0f172a" font-size="11" font-weight="700">SMS STATUS</text>

  <g font-size="13" fill="#0f172a">
    <text x="80" y="442" font-weight="600">Kisumu</text>
    <text x="200" y="442">Cholera</text>
    <rect x="320" y="428" width="70" height="22" rx="11" fill="#FEE2E2"/>
    <text x="355" y="443" text-anchor="middle" fill="#991B1B" font-size="11" font-weight="700">HIGH</text>
    <text x="450" y="442" font-weight="700" fill="#DC2626">12</text>
    <rect x="570" y="428" width="100" height="22" rx="11" fill="#D1FAE5"/>
    <text x="620" y="443" text-anchor="middle" fill="#065F46" font-size="11" font-weight="700">SMS QUEUED</text>

    <text x="80" y="482" font-weight="600">Kisumu</text>
    <text x="200" y="482">Malaria</text>
    <rect x="320" y="468" width="70" height="22" rx="11" fill="#FEE2E2"/>
    <text x="355" y="483" text-anchor="middle" fill="#991B1B" font-size="11" font-weight="700">HIGH</text>
    <text x="450" y="482" font-weight="700" fill="#DC2626">12</text>
    <rect x="570" y="468" width="100" height="22" rx="11" fill="#D1FAE5"/>
    <text x="620" y="483" text-anchor="middle" fill="#065F46" font-size="11" font-weight="700">SMS QUEUED</text>

    <text x="80" y="522" font-weight="600">Mombasa</text>
    <text x="200" y="522">Malaria</text>
    <rect x="320" y="508" width="70" height="22" rx="11" fill="#FEE2E2"/>
    <text x="355" y="523" text-anchor="middle" fill="#991B1B" font-size="11" font-weight="700">HIGH</text>
    <text x="450" y="522" font-weight="700" fill="#DC2626">7</text>
    <rect x="570" y="508" width="100" height="22" rx="11" fill="#D1FAE5"/>
    <text x="620" y="523" text-anchor="middle" fill="#065F46" font-size="11" font-weight="700">SMS QUEUED</text>

    <text x="80" y="562" font-weight="600">Mombasa</text>
    <text x="200" y="562">Cholera</text>
    <rect x="320" y="548" width="80" height="22" rx="11" fill="#FEF3C7"/>
    <text x="360" y="563" text-anchor="middle" fill="#92400E" font-size="11" font-weight="700">MEDIUM</text>
    <text x="450" y="562" font-weight="700" fill="#F59E0B">7</text>
    <rect x="570" y="548" width="100" height="22" rx="11" fill="#D1FAE5"/>
    <text x="620" y="563" text-anchor="middle" fill="#065F46" font-size="11" font-weight="700">SMS QUEUED</text>

    <text x="80" y="602" font-weight="600">Eldoret</text>
    <text x="200" y="602">Pneumonia</text>
    <rect x="320" y="588" width="80" height="22" rx="11" fill="#FEF3C7"/>
    <text x="360" y="603" text-anchor="middle" fill="#92400E" font-size="11" font-weight="700">MEDIUM</text>
    <text x="450" y="602" font-weight="700" fill="#F59E0B">4</text>
    <rect x="570" y="588" width="100" height="22" rx="11" fill="#D1FAE5"/>
    <text x="620" y="603" text-anchor="middle" fill="#065F46" font-size="11" font-weight="700">SMS QUEUED</text>
  </g>

  <text x="60" y="700" fill="#475569" font-size="12">Total: 42 SMS dispatched · last run 2026-05-14 08:00 EAT · next run in 23h 32m</text>

  <!-- Sidebar -->
  <rect x="760" y="305" width="400" height="200" rx="12" fill="white" stroke="#e2e8f0"/>
  <text x="780" y="340" fill="#0D6E6E" font-size="18" font-weight="700">Admin Actions</text>
  <rect x="780" y="360" width="360" height="36" rx="6" fill="#0D6E6E"/>
  <text x="960" y="383" fill="white" font-size="13" font-weight="600" text-anchor="middle">✓ Verify Uploaded Cards (3)</text>
  <rect x="780" y="406" width="360" height="36" rx="6" fill="#1E40AF"/>
  <text x="960" y="429" fill="white" font-size="13" font-weight="600" text-anchor="middle">📊 Generate Reports</text>
  <rect x="780" y="452" width="360" height="36" rx="6" fill="#7C3AED"/>
  <text x="960" y="475" fill="white" font-size="13" font-weight="600" text-anchor="middle">📋 View Audit Logs</text>

  <rect x="760" y="525" width="400" height="210" rx="12" fill="white" stroke="#e2e8f0"/>
  <text x="780" y="560" fill="#0D6E6E" font-size="18" font-weight="700">Coverage by County</text>
  <text x="780" y="595" fill="#0f172a" font-size="13">Nairobi</text>
  <rect x="880" y="585" width="240" height="10" rx="5" fill="#e2e8f0"/>
  <rect x="880" y="585" width="220" height="10" rx="5" fill="#10B981"/>
  <text x="1140" y="594" text-anchor="end" fill="#475569" font-size="11">92%</text>

  <text x="780" y="630" fill="#0f172a" font-size="13">Kisumu</text>
  <rect x="880" y="620" width="240" height="10" rx="5" fill="#e2e8f0"/>
  <rect x="880" y="620" width="70" height="10" rx="5" fill="#DC2626"/>
  <text x="1140" y="629" text-anchor="end" fill="#475569" font-size="11">29%</text>

  <text x="780" y="665" fill="#0f172a" font-size="13">Mombasa</text>
  <rect x="880" y="655" width="240" height="10" rx="5" fill="#e2e8f0"/>
  <rect x="880" y="655" width="155" height="10" rx="5" fill="#F59E0B"/>
  <text x="1140" y="664" text-anchor="end" fill="#475569" font-size="11">65%</text>

  <text x="780" y="700" fill="#0f172a" font-size="13">Eldoret</text>
  <rect x="880" y="690" width="240" height="10" rx="5" fill="#e2e8f0"/>
  <rect x="880" y="690" width="180" height="10" rx="5" fill="#F59E0B"/>
  <text x="1140" y="699" text-anchor="end" fill="#475569" font-size="11">75%</text>
</svg>
